<?xml version="1.0" encoding="utf-8"?>
<!-- Generator: Adobe Illustrator 22.0.0, SVG Export Plug-In . SVG Version: 6.00 Build 0)  -->
<svg version="1.1" xmlns="http://www.w3.org/2000/svg" xmlns:xlink="http://www.w3.org/1999/xlink" x="0px" y="0px"
	 viewBox="0 0 553 669.3" style="enable-background:new 0 0 553 669.3;" xml:space="preserve">
<style type="text/css">
	.st0{fill:#34445B;}
	.st1{fill:#CEE7F5;}
	.st2{fill:#DD7B6D;}
	.st3{fill:#BDBFC1;}
	.st4{fill:#09539D;}
	.st5{fill:#5CB6DD;}
	.st6{fill:#FCE5DF;}
	.st7{opacity:0.14;}
	.st8{fill:#FFFDF1;}
	.st9{fill:#335F7D;}
	.st10{opacity:0.1;fill:#FFFFFF;}
	.st11{opacity:0.1;fill:#020203;}
	.st12{fill:#F8F8F7;}
	.st13{fill:#F8BEA6;}
	.st14{fill:#FFFFFF;}
	.st15{fill:#467ABD;}
	.st16{fill:#F7D0B1;}
	.st17{fill:#DFC2BB;}
	.st18{fill:#BBBDC0;}
	.st19{opacity:0.2;}
	.st20{fill:#FFFDF2;}
	.st21{opacity:0.25;fill:#020203;}
	.st22{fill:#36A9E1;stroke:#1D71B8;stroke-miterlimit:10;}
</style>
<g id="Capa_1">
	<g>
		<g>
			<g>
				<path class="st0" d="M548,57.3C376.7,94.4,289.7,14.8,278,3c0,0-0.2-1.2-0.7-0.7c-0.5-0.5-0.7,0.7-0.7,0.7
					c-11.7,11.7-98.7,91.3-270,54.3c0,0-26.3,308.2,73.6,433.9c106.7,134.3,196.7,174.9,197.1,174.5c0.5,0.3,91.2-39.5,197.1-174.5
					C573.5,364.9,548,57.3,548,57.3z"/>
				<path class="st1" d="M522.9,89c-155.5,33-234.4-37.8-245-48.3c0,0-0.2-1-0.6-0.6c-0.4-0.4-0.6,0.6-0.6,0.6
					C266,51.2,187.1,122,31.7,89c0,0-23.9,274.4,66.7,386.3c96.8,119.6,178.4,163,178.8,162.7c0.4,0.3,82.9-42.5,179-162.7
					C546.1,362.8,522.9,89,522.9,89z"/>
			</g>
		</g>
	</g>
	<g>
		<g>
			<g>
				<g>
					<path class="st2" d="M353.5,202.1c0.2,0,0.4,0,0.5,0c1.6,0.2,2.2,1.3,3.7,2c0.6,0.3,2.2-0.7,2.4,0.8c0.1,0.5,0.1,1.9,0.2,3
						c0.2,1.7,1.5,3.6,2.8,5c5.2,5.4,11.7,9.3,18.3,12.9c0.4,0.2,0.8,0.4,1.2,0.4c0.8,0,1.4-0.6,1.9-1.1c2.5-2.6,5.2-4.9,8-6.9
						c2.6-1.8,5.4-3.5,8.5-4c3.1-0.5,6.6,0.2,8.7,2.5c1.6,1.8,2.3,4.3,1.7,6.6c-1.3,5.7-9.8,7.2-14.5,9c-4.5,1.7-9,3.1-13.7,4.1
						c-0.6,0.1-1.2,0.3-1.7,0.1c-0.6-0.1-1.2-0.5-1.7-0.8c-6.6-4.6-12.8-9.8-18.9-15.1c-1.7-1.5-2.4-3.6-3.9-5
						c-1-0.9-2.4-0.8-3.5-1.4c-1.1-0.6-2.4-1.6-3.2-2.6c-1.6-1.9-1-4.4-0.7-6.6c0.1-0.6,0.1-0.9,0.4-1.4c0.5-0.7,1.3-0.9,2.1-1.2
						C352.6,202.2,353.1,202.1,353.5,202.1z"/>
				</g>
				<g>
					<path class="st3" d="M398.3,230.2c-3-3.7-5.9-7.4-8.9-11.2c0.2,0.2,16-14.5,17-15.3c3.7-3.2,7.6-6.5,12.3-7.9
						c10.1-2.9,18.7,7.9,12.6,16.9c-6.6,9.7-17.5,17.8-28.7,21.5c-0.2,0.1-0.5,0.2-0.7,0.1c-0.3-0.1-0.6-0.4-0.8-0.6
						C400.1,232.6,399.2,231.4,398.3,230.2z"/>
				</g>
			</g>
			<g>
				<g>
					<g>
						<g>
							<g>
								<g>
									<polygon class="st2" points="412.6,375.8 412.7,387.5 406,387.5 405.8,374.6 									"/>
								</g>
							</g>
							<g>
								<g>
									<path class="st4" d="M406.6,385.7l5.9,2l1.8,1.9l-0.3,4.6l-15.9,1.3l0,0c-1.3-2-0.5-4.7,1.8-5.5l0.7-0.3L406.6,385.7z"/>
								</g>
							</g>
						</g>
					</g>
					<g>
						<g>
							<g>
								<g>
									<g>
										<g>
											<polygon class="st2" points="461.3,364.5 465.7,375.3 459.5,378 454.6,366.1 											"/>
										</g>
									</g>
									<g>
										<g>
											<path class="st4" d="M459.6,378.2c0.2-0.3,0.5-0.5,0.8-0.7c0.7-0.6,6.8-3.8,7.3-2.4c0.1,0.2,0.1,0.5,0,0.8
												c-0.5,4.2-1.5,8.4-2.9,12.5c-0.6,1.7-1.5,3.6-3.3,4.1c-0.8,0.2-1.6,0-2.3-0.1c-1.1-0.3-2.2-0.6-3.3-1
												c-0.4-0.2-0.8-0.3-1-0.7c-0.4-0.8,0.3-1.7,1-2.1c0.7-0.4,1.7-0.7,2-1.5c0.2-0.4,0.2-0.8,0.2-1.1
												C458.4,383,457.9,380.2,459.6,378.2z"/>
										</g>
									</g>
								</g>
							</g>
							<g>
								<path class="st5" d="M418.8,321.5c2.2,10.4,8.6,17.9,15.3,25.5c7.7,8.8,15,17.9,21.8,27.5c2.9-1.3,5.9-2.5,8.8-3.8
									c-2.5-14.6-9.2-28-14.4-41.9c-3.6-9.6-6.6-19.8-6.7-30.2c-0.1-5.2,1.1-9.9,1.8-14.9c0.8-6.2,0.9-12.6,1.6-18.9
									c0.2-2.1,0.4-4.6-1.2-5.9c-0.7-0.6-1.6-0.9-2.5-1C409.9,251.4,414.6,301.7,418.8,321.5z"/>
							</g>
						</g>
					</g>
					<path class="st5" d="M446,267c0-6.3-0.7-12.4-1.9-17c-9.5-0.5-20.2,0.6-29.6,2.5c-9.2,1.9-14.9,4-15,14.2
						c-0.1,18.8-7.3,34.8-10.4,52.8c-1.8,10.5,1.3,19.9,4.7,29.6c3.9,11.1,7.3,22.5,10,33.9c3.2,0,6.4,0,9.5-0.1
						c3.1-14.5,1.8-29.5,2.1-44.4c0.2-10.3,1.2-20.9,4.9-30.5c4.1-10.6,9.9-6.4,16.6-12.6C443.6,289.4,445.9,277.9,446,267z"/>
				</g>
				<g>
					<path class="st3" d="M435.2,194.7c1,0.8,2,1.8,2.9,2.8c0.8,0.9,1.6,1.8,2.4,2.7c2.8,3.1,4.2,7.7,5.4,11.6
						c6.4,20.8,8.7,49.3,4.5,71c-15.7,1.4-33.8-2.7-49.5-4.9c-1.5-0.2-3.2-0.6-4-1.9c-0.5-0.8-0.5-1.8-0.5-2.8
						c0-13.8,2.8-28.6,5.5-42.2c1.1-5.7,2.5-11.4,4.3-17c1.9-5.9,4-12.2,8.4-16.7c4.7-4.8,13.7-7.1,19.6-3.4
						C434.6,194.2,434.9,194.4,435.2,194.7z"/>
				</g>
				<g>
					<g>
						<g>
							<path class="st2" d="M433.5,197.6c0.3-1.9,0.6-3.7,0.9-5.6c0.4-0.2,0.7-0.4,1.1-0.6c6.5-4.3,17.5-27.3,0.1-32.5
								c-15.8-4.7-15,17.7-11.9,27c0.5,1.6,1.2,3.1,2.3,4.4c0.7,0.9,0.9,0.7,0.8,1.8c-0.1,1-1.1,2.1-1.3,3.2
								c-0.2,1.1-0.1,2.4,0.5,3.3c0.4,0.6,1,1,1.6,1.3c1,0.5,2.1,0.8,3.2,0.6C431.8,200.3,433.3,198.9,433.5,197.6z"/>
						</g>
					</g>
					<g>
						<g>
							<g>
								<g>
									<path class="st0" d="M419.9,177.4c1,3,2.3,5.8,4,8.4c-0.1-5.5,0.6-11,1.9-16.3c0.1-0.4,0.2-0.9,0-1.2
										c-0.2-0.3-0.6-0.5-1-0.5C418.2,166.3,418.2,172.2,419.9,177.4z"/>
								</g>
							</g>
						</g>
						<g>
							<g>
								<g>
									<g>
										<path class="st0" d="M437.4,185.7c1.1,1.5,3.4,1.1,5.1,0.3c6.8-3.5,10.8-11.9,9.3-19.5c-1.3-6.4-9.1-11.2-10.7-3.3
											c-0.6,2.8,1.1,6.7,0.7,9.8C441.2,177.4,439.2,181.7,437.4,185.7z"/>
									</g>
								</g>
							</g>
							<g>
								<g>
									<g>
										<path class="st0" d="M419.9,153c-0.8,0.3-1.5,0.6-2.3,1c-1.7,0.7-2.9,0.9-4.6-0.1c-0.5-0.3-3.8-3.5-3-4.2
											c-5.3,4.4-0.9,10.9,1,15.5c1.3,3.1,1.6,7.5,4.6,9.5c3.3,2.2,5.6-0.6,8.6-1.9c2.7-1.1,5.5-1.7,8.2-2.7
											c4.5-1.6,11.2-4.5,9.7-10.7c-1.7-7.1-8.8-8.9-15.1-8.4C424.3,151.3,422.2,152.1,419.9,153z"/>
									</g>
								</g>
							</g>
						</g>
					</g>
				</g>
			</g>
			<g>
				<g>
					<g>
						<path class="st6" d="M439.5,274.1c-0.1-0.1-0.2-0.3-0.3-0.4c-0.7-1.4-0.2-2.6-0.5-4.1c-0.1-0.7-1.8-1.4-0.7-2.4
							c0.4-0.4,1.5-1.1,2.3-1.9c1.2-1.1,2.1-3.3,2.5-5.2c0.7-3.5-1.4-13.8,2.9-15.6c10.1-4.1,3,17,2.8,19c-0.1,1.3,0.7,2.4,0.9,3.7
							c0.2,1.2,0,2.9-0.3,4.1c-0.6,2.4-3,3.3-5,4.4c-0.5,0.3-0.8,0.4-1.4,0.4c-0.9,0-1.5-0.5-2.2-1
							C440.2,274.8,439.8,274.5,439.5,274.1z"/>
					</g>
				</g>
				<path class="st3" d="M440.2,198.3c0.4,0.5,0.9,1.2,1.6,2c3.7,4.3,6,11.2,7.9,16.5c3.9,11.2,5.3,23.3,3.9,35.1
					c0,0.4-0.1,0.9-0.5,1.2c-0.3,0.3-0.8,0.3-1.2,0.2c-2.7-0.2-5.3-0.4-8-0.6c-0.6,0-1.2-0.1-1.7-0.4c-0.9-0.6-1-2-1-3.1
					c0.1-7.4-0.8-14.8-2.6-21.9c-0.9-3.4-3.2-7.4-3.4-10.8c-0.2-3.1,1.1-6.6,0.9-9.9c-0.1-2-0.3-5,0.9-6.8
					C438.7,197.4,439.3,197.4,440.2,198.3z"/>
			</g>
		</g>
		<g>
			<g>
				<path class="st0" d="M434.6,403.5l-16-4.4c-2.7-0.7-4.3-3.5-3.5-6.2l9.2-33.4l25.8,7.1l-9.2,33.4
					C440.1,402.7,437.3,404.3,434.6,403.5z"/>
				<path class="st0" d="M291.8,364.2l-17-4.7c-2.4-0.7-3.8-3.2-3.2-5.6L281,320l25.8,7.1l-9.3,33.9
					C296.8,363.4,294.2,364.8,291.8,364.2z"/>
				<path class="st0" d="M443.3,244.6l-90.9-25c-7-1.9-14.5,1.1-18.7,7.5l-28.3,43.2l0,0l-23.2,24.1c-0.9,1-1.6,2.2-2,3.4L272,328
					c-1.2,4.3,1.3,8.7,5.5,9.9L442.7,385c4.3,1.2,8.8-1.3,10-5.6l8-29.1c0.3-1.1,0.4-2.2,0.2-3.2l-4.9-35.3l-0.5-0.1l0-50.1
					C455.5,253.4,450.5,246.6,443.3,244.6z"/>
				<path class="st5" d="M429.1,304.3l-98.3-27.1c-5.1-1.4-7.2-7.8-4.1-12.6l21.2-32c1.9-2.9,5.3-4.3,8.5-3.4l77,21.2
					c3.3,0.9,5.5,4,5.6,7.6L439,296C439,301.5,434,305.7,429.1,304.3z"/>
				<g class="st7">
					<path class="st8" d="M438.8,287.5c-5.8-5.8-12-11.3-18.1-16.9c-7.6-7-15-14.2-22.5-21.3c-4-3.7-7.9-7.4-11.8-11.1l-30.3-8.3
						c-1.3-0.4-2.6-0.3-3.9,0c0,0,0.1,0.1,0.1,0.1c3.9,3.8,7.8,7.6,11.7,11.4c7,6.8,14,13.7,20.6,20.9c6.6,7.1,12.9,14.5,19.7,21.5
						c6.3,6.6,12.7,13.1,19.1,19.6l5.4,1.5c5,1.4,10-2.8,10-8.3L438.8,287.5z"/>
					<path class="st8" d="M397.1,283.1c-6.9-7.3-13.3-15-20.3-22.2c-6.9-7.1-14-14.1-21.1-21c-2.5-2.5-5-4.9-7.6-7.4
						c-0.2,0.2-0.3,0.4-0.5,0.6l-9.8,14.8c1.9,2.1,3.9,4.2,5.8,6.3c11.2,12.5,22.4,25.1,34.7,36.7l35.8,9.9
						C408.5,295,402.7,289.1,397.1,283.1z"/>
				</g>
				<path class="st0" d="M454.3,303.7l6-1.2c1.1-0.2,2.2,0,3.2,0.5l6.2,3.4c1.5,0.8,2.5,2.5,2.4,4.2l0,0c-0.1,2.3-1.8,4.2-4,4.5
					l-8.1,1.2c-0.7,0.1-1.5,0-2.2-0.2l-4.2-1.4c-2-0.7-3.2-2.5-3.2-4.6l0.1-2C450.6,306,452.1,304.1,454.3,303.7z"/>
				<path class="st9" d="M309.5,263.8l-4.6-4.1c-0.8-0.7-1.9-1.2-3-1.2l-7.1-0.2c-1.8-0.1-3.4,0.9-4.3,2.4l0,0
					c-1.1,2-0.6,4.5,1.1,5.9l6.3,5.1c0.6,0.5,1.2,0.8,2,0.9l4.3,0.9c2,0.4,4.1-0.5,5.1-2.3l1-1.7
					C311.5,267.7,311.1,265.3,309.5,263.8z"/>
				<path class="st10" d="M457.6,361.2l-5,18.3c-1.2,4.3-5.7,6.8-10,5.6l-165.1-47.1c-4.2-1.2-6.7-5.6-5.5-9.9l5.1-16.1L457.6,361.2
					z"/>
				<polygon class="st11" points="276.2,337.4 301.9,344.8 299.6,352.9 275.3,340.4 				"/>
				<polygon class="st11" points="419,378.5 444.7,386 442.5,394.1 418.2,381.5 				"/>
				<g>
					<g>
						
							<ellipse transform="matrix(0.9108 -0.4129 0.4129 0.9108 -104.3941 211.5509)" class="st12" cx="437.4" cy="347.4" rx="11.8" ry="11.8"/>
					</g>
					<path class="st11" d="M440.3,355.4c2.2-0.4,4.4-1.4,5.8-3.2c-0.5,2.1-2.1,4-4.1,4.8c-0.7,0.3-1.4,0.4-2.2,0.5
						c-0.8,0.1-1.6,0.2-2.3,0.2c-2.1-0.1-4.2-1.2-5.4-3c0.4,0.6,2.7,0.8,3.3,0.8C437.1,355.6,438.7,355.6,440.3,355.4z"/>
				</g>
				<g>
					<g>
						
							<ellipse transform="matrix(0.7897 -0.6136 0.6136 0.7897 -128.9677 248.9594)" class="st12" cx="298.6" cy="312.6" rx="11.8" ry="11.8"/>
					</g>
					<path class="st11" d="M301.5,320.6c2.2-0.4,4.4-1.4,5.8-3.2c-0.5,2.1-2.1,4-4.1,4.8c-0.7,0.3-1.4,0.4-2.2,0.5
						c-0.8,0.1-1.6,0.2-2.3,0.2c-2.1-0.1-4.2-1.2-5.4-3c0.4,0.6,2.7,0.8,3.3,0.8C298.3,320.8,299.9,320.8,301.5,320.6z"/>
				</g>
			</g>
		</g>
		<g>
			<polygon class="st13" points="231.1,164.3 233.6,157 231.8,152.4 227.7,152 227,157 226,156.3 224.2,156.8 225.6,161.5 
				226.1,164.3 			"/>
			<path class="st14" d="M199.2,204.4c1.4-0.8,2.7-1.6,4.2-2.3c4.1-1.9,8.1-4,12.1-6.1c2.4-1.3,4.9-2.7,6.6-4.9
				c0.9-1.3,1.5-2.7,2.1-4.2c3.1-7.7,5.6-15.6,7.6-23.6c-1.7-0.8-6.2-3-7.8-1.5c-0.5,0.5-0.8,1.2-1.1,1.9c-1.3,3.2-2.7,6.4-4.1,9.6
				c-1.6,3.6-3.2,7.2-5.4,10.3c-0.3,0.4-0.6,0.8-1,1.1c-0.5,0.3-1,0.4-1.5,0.4c-8.2,1.2-13.1-1.9-21.1,0.1c-1.8,0.4-6.8,6-8,7.5
				c-0.9,1.2-1.1,2.7-1.2,4.2c-0.1,1.9-0.1,4,0.8,5.7c1,2,3.1,3.3,5.3,3.9c2.2,0.6,4.5,0.4,6.7,0.1
				C195.5,206.4,197.4,205.4,199.2,204.4z"/>
		</g>
		<polygon id="XMLID_200_" class="st15" points="354.9,112.1 338.8,160.3 357.6,161.4 355.9,203.5 375.6,153.3 354.6,149.4 		"/>
		<polygon id="XMLID_199_" class="st15" points="406.2,162.4 379.6,180.6 383.9,188.2 363.8,208.9 392.3,190.9 388.7,181 		"/>
		<g>
			<g>
				<polygon class="st16" points="216.8,240.9 214.5,245.5 221.6,250.2 226.2,247.5 226.4,242.9 222.3,243 222.7,242.1 224,241.7 
					223.6,240.4 				"/>
			</g>
			<g>
				<g>
					<path class="st17" d="M173.7,188.2c0.9-1.4,2.2-2.6,3.7-3.4c0.8-0.4,1.7-0.7,2.6-0.7c1,0,1.9,0.3,2.7,0.7
						c11,5.5,11.5,23.5,11.6,34c0.1,6.7,9.4,10.5,14.4,14c2.3,1.6,9.8,5.4,9.8,8c0,0.5-2.9,6.2-2.8,6.3c-6.4-2.5-12.8-5-19.2-7.5
						c-4.7-1.8-9.7-2.8-14.4-4.9c-1.8-0.8-3.6-1.7-4.7-3.3c-0.9-1.2-1.2-2.7-1.6-4.2c-1.7-7.3-3-14.6-3.9-22
						c-0.4-3.7-0.9-7.5-0.3-11.2C171.9,191.9,172.6,189.9,173.7,188.2z"/>
				</g>
			</g>
		</g>
		<g>
			<path class="st14" d="M164,183.6c-0.1,0-0.2,0-0.3,0c-2.5,0.2-5,1.1-6.7,2.9c-0.9,0.9-1.5,2-2.1,3.1c-1.6,3-2.7,6.1-3.9,9.3
				c-3.5,9.1-6.2,18.5-8.2,28.1c-1,4.6-6.7,57-3.3,56.8c20.8-1.4,41.7-2.1,62.6-2.1c1.4-27.2,2.6-55.3-7-80.7c-1.5-4-3.3-7.9-6.1-11
				C183.1,183.1,172.4,182.8,164,183.6z"/>
			<g>
				<g>
					<g id="XMLID_198_">
						<polygon class="st0" points="178.5,387.6 178.5,391.2 187.8,395.8 192.4,391.2 187.8,386.6 187.2,386.6 187,387.6 						"/>
					</g>
					<g id="XMLID_197_">
						<polygon class="st0" points="155.8,386.6 155.2,386.6 150.6,391.2 155.2,395.8 164.4,391.2 164.4,387.6 155.9,387.6 						"/>
					</g>
					<g>
						<g>
							<path class="st18" d="M197.8,277.9c-5.2-1.5-10.8-3.9-16.2-3.8c-0.6,0-1.2,0-1.7,0c-0.5,0-1,0.1-1.5,0.1
								c-3.6,0.3-7.7,0.7-12,1.2c-0.2,0-0.4,0.1-0.6,0.1c-5.5,1.2-9,1.7-11.3,1.8c-2.2,0.6-4.4,1.3-6.4,2.3c-1,0.5-1.9,1-2.8,1.6
								l0,5.9l10.4,100.6h8.5v1h0l9.4-67.5l0-0.4l5.1,67.9h0v-1h8.6l10.9-75.6L197.8,277.9z"/>
						</g>
					</g>
				</g>
				<g>
					<g>
						<path class="st0" d="M180.3,157.1c1.1,2.2,1.5,4.7,1.5,7.2c0,0.7,0,1.4,0.5,1.8c0.5,0.4,0,1.3,0.5,0.8c0.5-0.5,2-2.4,2.1-3.1
							c0.2-1.6,0.3-3.3,0.2-4.9c-0.1-1.4-0.3-2.9-1.1-4.1c-0.5-0.7-1.2-1.2-1.9-1.6c-1-0.7-2-1.4-3.2-1.7c-2-0.5-3.3,0.2-1.6,1.7
							C178.5,154.3,179.5,155.5,180.3,157.1z"/>
					</g>
					<g>
						<g>
							<path class="st13" d="M166.1,184.3c2.8,0.4,5.6,0.8,8.4,1.2c0.6-2.5,0.9-4.9,1.1-7.5c2.5-0.3,5.4-1,6.4-3.5
								c0.3-0.8,0.4-1.7,0.4-2.6c0.2-3.6,0.4-7.2,0.6-10.9c0.1-1.3,0.1-2.5-0.2-3.7c-0.6-2.1-2.5-3.4-4.3-4.3
								c-4.6-2.2-10.1-2.4-14.6,0.1c-1.2,0.7-2.3,1.6-3.1,2.8c-1.1,1.9-1.1,4.4-1.1,6.7c0,2.1,0.1,4.2,0.1,6.4
								c0,2.4,0.3,5.3,2.1,6.6c1,0.7,2.2,0.9,3,1.9C166.5,179.3,165.7,182.1,166.1,184.3z"/>
						</g>
					</g>
					<g>
						<path class="st0" d="M183.4,170.6c0-0.7-0.2-2.7-1.2-1.5c-0.3,0.3-0.4,0.8-0.4,1.2c0,0.4,0,0.9-0.2,1.3
							c-0.4,0.9-1.4,1.3-2.3,1.2c-0.4,0-0.7-0.1-1-0.3c-0.3-0.2-0.5-0.5-0.8-0.8c-0.5-0.7-1.1-1.4-1.6-2.1c-0.9-1.2-2.9-0.8-4.3-0.7
							c-1.6,0.1-3.1,0.5-4.4,1.5c-0.1,0.1-0.3,0.2-0.4,0.3c-0.3,0.3-0.6,0.5-1,0.7c-1.2,0.5-2.7-0.2-3.4-1.3
							c-0.4-0.5-0.7-1.2-1.3-1.3c-0.5-0.1-0.9,0.2-1.2,0.7c-0.3,0.4-0.4,1-0.4,1.5c-0.2,1.9-0.1,3.8,0.7,5.5
							c1.5,3.7,4.9,4.3,8.2,4.4c1.3,0,2.7,0.1,4,0.1c2.4,0.1,5,0.1,7.1-1.2c1.9-1.2,3-3.3,3.6-5.5
							C183.3,173,183.4,171.8,183.4,170.6z M174.2,175.2c-1.3,0.8-2.7,0.8-4.1,0.3c-0.6-0.2-0.3-1.2,0.3-1c1.2,0.4,2.3,0.5,3.4-0.2
							C174.3,173.9,174.8,174.9,174.2,175.2z"/>
					</g>
					<g>
						<path class="st0" d="M184.9,151c0.3-0.9,0.5-1.7,0.7-2.6c-0.8,0.2-1.7,0.3-2.6,0.1c0-0.5,0-1,0.1-1.6c0-0.4-5.7-1-6.2-1.1
							c-4.4-0.6-8.3-1.2-12.4,1c-3.5,1.9-5.8,4.8-6.5,8.7c-0.7,3.8,0.3,8.8,2.3,12c0-1-0.4-3.4-0.1-4.4c0.2-1,0.6-1.9,1.1-2.7
							c1-1.7,2.5-3,4.1-4c2.6-1.5,5.7-2.2,8.7-2.5c2.8-0.2,6.1-0.4,8.8,0.5c1.3,0.4,1.5,0.8,2.3-0.5c0.2-0.2,1.4-2.9,1.3-2.9
							C185.8,151.1,185.3,151,184.9,151z"/>
					</g>
				</g>
			</g>
		</g>
		<g>
			<g>
				<g>
					<path class="st4" d="M87.8,328.7l7.5-19.4l0.4-0.2c0-2,0-3.9,0.1-5.9c0.1-10.4,0.2-20.8,0.3-31.2c0.1-9.1-2.7-23.4,7.3-28.2
						l95.2-45.5c10.6-5.1,23.3-3.2,32.6,4.6l32.5,27.5l1.6-0.7l36.7-5.2c13.8,0.1,26.3,8.1,32.3,20.6l8.9,18.7L101.5,379.3
						l-12.7-26.6C85.2,345.2,84.9,336.5,87.8,328.7z"/>
					<path class="st5" d="M173.3,268.7l-63.5,30.3l-2.5-42.4c-0.1-2.1,1-4,2.8-4.9l44.9-21.4L173.3,268.7z"/>
					<path class="st5" d="M165.8,225.1l36.4-17.4c7.7-3.7,17-2.4,23.8,3.4l24.6,20.7l-66.3,31.7L165.8,225.1z"/>
					<g class="st19">
						<path class="st20" d="M109.6,266.1c-0.6,0.9-1.3,1.7-1.9,2.6l-0.7-11.6c-0.1-2.1,1-4,2.8-4.9l15.5-7.4
							C120.2,251.9,114.9,258.9,109.6,266.1z"/>
						<path class="st20" d="M112.5,275.1c8.6-11.9,17.5-24.9,25.9-36.9l14.7-6.7c-5.9,13.4-14.9,27-22.8,39.2
							c-4.7,7.3-9.7,14.5-15,21.4c-1.7,2.3-3.6,4.5-5.5,6.7l-1.1-18.4C109.9,278.7,111.2,276.9,112.5,275.1z"/>
						<path class="st20" d="M188.3,242.6c3.4-5.5,7.1-10.9,10.8-16.1c3.8-5.3,7.7-10.7,12-15.6c1.4-1.6,2.9-3.2,4.3-4.8
							c3.8,0.7,7.4,2.4,10.5,5.1l0.2,0.2c-3.7,6.5-7.4,12.9-11,19.4c-5.3,9.6-12.2,18.2-18.6,27l-12.4,5.9l-3.3-7
							C183.3,251.9,185.5,247.1,188.3,242.6z"/>
					</g>
					<g>
						<path class="st11" d="M251.7,307.6c-0.7-1-1.4-2-1.9-3.2c-5.3-11.2,1-25.4,14.2-31.7c5.2-2.5,10.6-3.4,15.6-2.9
							c-7.3,5.6-12.5,13.1-15.8,21.2c-1.7,4.1-2.6,8.1-2.9,12.1L251.7,307.6z"/>
					</g>
					<g>
						<path class="st11" d="M126.5,367.3c-0.7-1-1.4-2-1.9-3.2c-5.3-11.2,0.8-25.2,13.6-31.4c5-2.4,10.3-3.2,15.3-2.7
							c-7.1,5.5-12.2,12.9-15.3,21c-1.6,4.1-2.5,8.1-2.8,12L126.5,367.3z"/>
					</g>
					<g>
						
							<ellipse transform="matrix(0.8817 -0.4718 0.4718 0.8817 -104.5573 166.138)" class="st0" cx="279.1" cy="291.6" rx="23.5" ry="23.5"/>
						<g>
							<g>
								
									<ellipse transform="matrix(0.1494 -0.9888 0.9888 0.1494 -50.9541 523.9561)" class="st12" cx="279.1" cy="291.6" rx="13.4" ry="13.4"/>
							</g>
							<path class="st11" d="M281,301c-2.4,0.9-5.1,1.2-7.5,0.4c1.7,1.8,4.3,2.6,6.8,2.2c0.8-0.1,1.6-0.4,2.4-0.7
								c0.8-0.3,1.6-0.7,2.4-1.2c2-1.3,3.3-3.6,3.4-6c0,0.8-2.2,2.3-2.7,2.7C284.2,299.4,282.6,300.4,281,301z"/>
						</g>
					</g>
					<g>
						
							<ellipse transform="matrix(0.9888 -0.1493 0.1493 0.9888 -50.7543 26.8532)" class="st0" cx="153.5" cy="351.6" rx="23.5" ry="23.5"/>
						<g>
							<g>
								
									<ellipse transform="matrix(0.9995 -3.005592e-02 3.005592e-02 0.9995 -10.4974 4.7733)" class="st12" cx="153.5" cy="351.6" rx="13.4" ry="13.4"/>
							</g>
							<path class="st11" d="M155.4,361c-2.4,0.9-5.1,1.2-7.5,0.4c1.7,1.8,4.3,2.6,6.8,2.2c0.8-0.1,1.6-0.4,2.4-0.7
								c0.8-0.3,1.6-0.7,2.4-1.2c2-1.3,3.3-3.6,3.4-6c0,0.8-2.2,2.3-2.7,2.7C158.7,359.4,157.1,360.3,155.4,361z"/>
						</g>
					</g>
				</g>
				<path class="st21" d="M199.7,275.6l6.6-3.1c1.4-0.7,2-2.3,1.3-3.7v0c-0.7-1.4-2.3-2-3.7-1.3l-6.6,3.1c-1.4,0.7-2,2.3-1.3,3.7
					l0,0C196.6,275.7,198.3,276.2,199.7,275.6z"/>
			</g>
			<polygon class="st4" points="267.3,239.7 287.3,221.2 296.6,231.2 303.2,210.2 318.3,218.5 322.5,210.9 301.5,204.3 293.2,219.5 
				285.6,215.3 259.7,235.6 			"/>
		</g>
		<g>
			<g>
				<polygon class="st13" points="152.3,252.1 147.5,253.8 149.3,262.1 154.5,263.4 157.8,260.2 154.8,257.4 155.7,257.1 
					156.9,257.7 157.5,256.5 				"/>
			</g>
			<g>
				<g>
					<path class="st14" d="M158.5,184.3c1.7-0.4,3.4-0.4,5,0.1c0.9,0.3,1.7,0.7,2.4,1.3c0.7,0.7,1.1,1.5,1.4,2.4
						c4,11.7-8.2,24.8-15.5,32.4c-4.7,4.9-0.6,14.1,0.5,20c0.5,2.8,3.2,10.7,1.4,12.6c-0.4,0.4-6.5,2.4-6.4,2.5
						c-2.8-6.3-5.7-12.6-8.5-18.8c-2.1-4.6-5-8.8-6.9-13.6c-0.7-1.8-1.4-3.7-1.1-5.6c0.2-1.5,1-2.8,1.8-4.1
						c3.9-6.4,8.1-12.5,12.7-18.4c2.3-3,4.6-6,7.6-8.2C154.5,185.6,156.5,184.7,158.5,184.3z"/>
				</g>
			</g>
		</g>
		<g>
			<path class="st4" d="M135.3,163.4c-0.7-3.1,0.9-5.8,3.9-6.5c3.1-0.7,5.6,1.1,6.3,4.2c0.7,3-0.8,5.8-3.9,6.5
				C138.5,168.3,135.9,166.4,135.3,163.4z M134.6,150.6l-10.6-41.1l8.3-1.9l8.1,41.7L134.6,150.6z"/>
		</g>
	</g>
</g>
<g id="Capa_2">
	<g>
		<g>
			<path d="M145.9,415h3.1l10,26.3h-5.3l-6.3-17.9l-6.3,17.9h-5.3L145.9,415z M140.7,432.3h13.8v4.8h-13.8V432.3z"/>
			<path d="M168.3,441.5c0,0-0.7-0.4-2.1-1.1c-1.4-0.8-2.5-1.9-3.3-3.3c-0.7-1.5-1.1-3.2-1.1-5.3v-7.2c0-2.1,0.4-3.8,1.1-5.3
				c0.7-1.5,1.8-2.6,3.3-3.4c1.4-0.8,3.1-1.2,5.1-1.2c1.6,0,3.1,0.4,4.4,1.1s2.4,1.7,3.2,3.1c0.8,1.4,1.4,3,1.8,4.9h-5.1
				c-0.2-0.9-0.5-1.6-0.9-2.2c-0.4-0.6-0.9-1.1-1.5-1.4c-0.6-0.3-1.2-0.5-1.9-0.5c-0.9,0-1.7,0.2-2.4,0.6c-0.7,0.4-1.1,0.9-1.5,1.7
				c-0.3,0.7-0.5,1.6-0.5,2.6v7.2c0,1,0.2,1.9,0.5,2.6c0.3,0.7,0.8,1.3,1.5,1.7c0.7,0.4,1.4,0.6,2.4,0.6c0.7,0,1.4-0.2,2-0.5
				c0.6-0.3,1.1-0.8,1.5-1.4c0.4-0.6,0.7-1.4,0.9-2.2h5.1c-0.3,1.9-0.9,3.6-1.8,4.9c-0.8,1.4-1.9,2.4-3.2,3.1
				c-1.3,0.7-2.8,1.1-4.4,1.1C169.3,441.5,168.3,441.5,168.3,441.5z"/>
			<path d="M191.2,441.5c0,0-0.7-0.4-2.1-1.1c-1.4-0.8-2.5-1.9-3.3-3.3c-0.7-1.5-1.1-3.2-1.1-5.3v-7.2c0-2.1,0.4-3.8,1.1-5.3
				c0.7-1.5,1.8-2.6,3.3-3.4c1.4-0.8,3.1-1.2,5.1-1.2c1.6,0,3.1,0.4,4.4,1.1s2.4,1.7,3.2,3.1c0.8,1.4,1.4,3,1.8,4.9h-5.1
				c-0.2-0.9-0.5-1.6-0.9-2.2c-0.4-0.6-0.9-1.1-1.5-1.4c-0.6-0.3-1.2-0.5-1.9-0.5c-0.9,0-1.7,0.2-2.4,0.6c-0.7,0.4-1.1,0.9-1.5,1.7
				c-0.3,0.7-0.5,1.6-0.5,2.6v7.2c0,1,0.2,1.9,0.5,2.6c0.3,0.7,0.8,1.3,1.5,1.7c0.7,0.4,1.4,0.6,2.4,0.6c0.7,0,1.4-0.2,2-0.5
				c0.6-0.3,1.1-0.8,1.5-1.4c0.4-0.6,0.7-1.4,0.9-2.2h5.1c-0.3,1.9-0.9,3.6-1.8,4.9c-0.8,1.4-1.9,2.4-3.2,3.1
				c-1.3,0.7-2.8,1.1-4.4,1.1C192.2,441.5,191.2,441.5,191.2,441.5z"/>
			<path d="M212.9,441.3h-5.1V415h5.1V441.3z"/>
			<path d="M218.3,415h5v26.3h-5V415z M220.8,436.5h6.3c1.6,0,2.9-0.4,3.8-1.2c0.9-0.8,1.3-1.9,1.3-3.3v-7.7c0-1.4-0.4-2.5-1.3-3.3
				c-0.9-0.8-2.1-1.2-3.8-1.2h-6.3V415h6.2c2.2,0,4.1,0.4,5.6,1.1c1.5,0.7,2.7,1.8,3.5,3.2c0.8,1.4,1.2,3.1,1.2,5.1v7.4
				c0,1.9-0.4,3.5-1.2,4.9c-0.8,1.4-1.9,2.5-3.5,3.3c-1.6,0.8-3.5,1.2-5.7,1.2h-6.2V436.5z"/>
			<path d="M242.6,415h5v26.3h-5V415z M244.4,415h15.8v4.8h-15.8V415z M244.4,425.8h13.8v4.8h-13.8V425.8z M244.4,436.5h15.8v4.8
				h-15.8V436.5z"/>
			<path d="M264.7,415h6.1l9.8,20.1l-0.4,0.5V415h4.7v26.3h-6.1l-9.7-19.8l0.4-0.5v20.3h-4.7V415z"/>
			<path d="M287,415h19.3v4.8H287V415z M294.2,417.1h5v24.1h-5V417.1z"/>
			<path d="M316,415h3.1l10,26.3h-5.3l-6.3-17.9l-6.3,17.9h-5.3L316,415z M310.7,432.3h13.8v4.8h-13.8V432.3z"/>
			<path d="M332.4,415h5v26.3h-5V415z M334.6,436.5H350v4.8h-15.4V436.5z"/>
			<path d="M358.4,441.3h-5.1V415h5.1V441.3z"/>
			<path d="M363.8,415h5v26.3h-5V415z M366.3,436.5h6.3c1.6,0,2.9-0.4,3.8-1.2c0.9-0.8,1.3-1.9,1.3-3.3v-7.7c0-1.4-0.4-2.5-1.3-3.3
				c-0.9-0.8-2.2-1.2-3.8-1.2h-6.3V415h6.2c2.2,0,4.1,0.4,5.6,1.1c1.5,0.7,2.7,1.8,3.5,3.2c0.8,1.4,1.2,3.1,1.2,5.1v7.4
				c0,1.9-0.4,3.5-1.2,4.9c-0.8,1.4-1.9,2.5-3.5,3.3c-1.6,0.8-3.5,1.2-5.7,1.2h-6.2V436.5z"/>
			<path d="M395.6,415h3.1l10,26.3h-5.3l-6.3-17.9l-6.3,17.9h-5.3L395.6,415z M390.4,432.3h13.8v4.8h-13.8V432.3z"/>
			<path d="M412,415h5v26.3h-5V415z M414.5,436.5h6.3c1.6,0,2.9-0.4,3.8-1.2c0.9-0.8,1.3-1.9,1.3-3.3v-7.7c0-1.4-0.4-2.5-1.3-3.3
				c-0.9-0.8-2.2-1.2-3.8-1.2h-6.3V415h6.2c2.2,0,4.1,0.4,5.6,1.1c1.5,0.7,2.7,1.8,3.5,3.2c0.8,1.4,1.2,3.1,1.2,5.1v7.4
				c0,1.9-0.4,3.5-1.2,4.9c-0.8,1.4-1.9,2.5-3.5,3.3c-1.6,0.8-3.5,1.2-5.7,1.2h-6.2V436.5z"/>
			<path d="M216,452h6.5v26.3H218v-20.4l0.2,1.2l-5,16.3h-4.4l-5-16l0.2-1.5v20.4h-4.5V452h6.5l5,17.7L216,452z"/>
			<path d="M228.3,452h5v26.3h-5V452z M230.1,452h15.8v4.8h-15.8V452z M230.1,462.8h13.8v4.8h-13.8V462.8z M230.1,473.5h15.8v4.8
				h-15.8V473.5z"/>
			<path d="M250.4,452h5v26.3h-5V452z M252.9,473.5h6.3c1.6,0,2.9-0.4,3.8-1.2c0.9-0.8,1.3-1.9,1.3-3.3v-7.7c0-1.4-0.4-2.5-1.3-3.3
				c-0.9-0.8-2.1-1.2-3.8-1.2h-6.3V452h6.2c2.2,0,4.1,0.4,5.6,1.1c1.5,0.7,2.7,1.8,3.5,3.2c0.8,1.4,1.2,3.1,1.2,5.1v7.4
				c0,1.9-0.4,3.5-1.2,4.9c-0.8,1.4-1.9,2.5-3.5,3.3c-1.6,0.8-3.5,1.2-5.7,1.2h-6.2V473.5z"/>
			<path d="M274.7,452h5v26.3h-5V452z M276.5,452h15.8v4.8h-15.8V452z M276.5,462.8h13.8v4.8h-13.8V462.8z M276.5,473.5h15.8v4.8
				h-15.8V473.5z"/>
			<path d="M296.8,452h5v26.3h-5V452z M299,473.5h15.4v4.8H299V473.5z"/>
			<path d="M318,452h5v26.3h-5V452z M320.2,473.5h15.4v4.8h-15.4V473.5z"/>
			<path d="M344,478.3h-5.1V452h5.1V478.3z"/>
			<path d="M349.4,452h6.1l9.8,20.1l-0.4,0.5V452h4.7v26.3h-6.1l-9.7-19.8l0.4-0.5v20.3h-4.7V452z"/>
		</g>
	</g>
	<line class="st22" x1="134.4" y1="489.7" x2="427.4" y2="489.7"/>
	<g>
		<g>
			<path d="M164.3,501h2l6.5,17h-3.5l-4.1-11.6l-4.1,11.6h-3.5L164.3,501z M160.9,512.2h9v3.1h-9V512.2z"/>
			<path d="M175,501h3.9l6.3,13.1l-0.3,0.3V501h3.1v17h-3.9l-6.3-12.9l0.3-0.3V518H175V501z"/>
			<path d="M196.6,501h2l6.5,17h-3.5l-4.1-11.6l-4.1,11.6h-3.5L196.6,501z M193.3,512.2h9v3.1h-9V512.2z"/>
			<path d="M207.3,501h3.2v17h-3.2V501z M208.7,514.9h10v3.1h-10V514.9z"/>
			<path d="M224.2,518h-3.3v-17h3.3V518z"/>
			<path d="M225.3,501h12.5v3.1h-12.5V501z M230,502.4h3.2V518H230V502.4z"/>
			<path d="M242.3,518H239v-17h3.3V518z"/>
			<path d="M249.7,518.2c0,0-0.5-0.2-1.4-0.7s-1.6-1.2-2.1-2.2s-0.7-2.1-0.7-3.4v-4.7c0-1.3,0.2-2.5,0.7-3.4s1.2-1.7,2.1-2.2
				s2-0.8,3.3-0.8c1.1,0,2,0.2,2.9,0.7s1.5,1.1,2.1,2s0.9,1.9,1.1,3.2h-3.3c-0.1-0.6-0.3-1-0.6-1.4s-0.6-0.7-0.9-0.9
				s-0.8-0.3-1.2-0.3c-0.6,0-1.1,0.1-1.5,0.4s-0.7,0.6-1,1.1s-0.3,1-0.3,1.7v4.7c0,0.7,0.1,1.2,0.3,1.7s0.5,0.8,1,1.1
				s0.9,0.4,1.5,0.4c0.5,0,0.9-0.1,1.3-0.3s0.7-0.5,0.9-0.9s0.4-0.9,0.6-1.5h3.3c-0.2,1.2-0.6,2.3-1.2,3.2s-1.2,1.5-2.1,2
				s-1.8,0.7-2.9,0.7C250.4,518.2,249.7,518.2,249.7,518.2z"/>
			<path d="M265.6,501h2l6.5,17h-3.5l-4.1-11.6l-4.1,11.6h-3.5L265.6,501z M262.2,512.2h9v3.1h-9V512.2z"/>
			<path d="M282.7,501h3.2v17h-3.2V501z M284.1,508.3h5.4c0.4,0,0.7-0.1,1-0.3s0.5-0.4,0.7-0.7s0.2-0.7,0.2-1.1
				c0-0.4-0.1-0.8-0.2-1.1s-0.4-0.6-0.7-0.8s-0.6-0.3-1-0.3h-5.4V501h5.4c1.1,0,2,0.2,2.8,0.7s1.4,1,1.9,1.8s0.7,1.7,0.7,2.7
				s-0.2,2-0.7,2.7s-1.1,1.4-1.9,1.8s-1.7,0.6-2.8,0.6h-5.4V508.3z"/>
			<path d="M297.6,501h3.2V518h-3.2V501z M298.9,508.1h5.9c0.3,0,0.6-0.1,0.9-0.2s0.4-0.4,0.6-0.7s0.2-0.7,0.2-1.1
				c0-0.4-0.1-0.8-0.2-1.1s-0.3-0.5-0.6-0.7s-0.5-0.2-0.9-0.2h-5.9V501h6.2c0.9,0,1.8,0.2,2.5,0.6s1.3,1,1.7,1.8s0.6,1.7,0.6,2.7
				s-0.2,1.9-0.6,2.7s-0.9,1.4-1.7,1.8s-1.5,0.6-2.5,0.6h-6.2V508.1z M302.5,510.7l3.4-0.5l4.6,7.9h-3.9L302.5,510.7z"/>
			<path d="M313.3,501h3.2v17h-3.2V501z M314.4,501h10.3v3.1h-10.3V501z M314.4,508h9v3.1h-9V508z M314.4,514.9h10.3v3.1h-10.3
				V514.9z"/>
			<path d="M327.6,501h3.2v17h-3.2V501z M329.2,514.9h4.1c1.1,0,1.9-0.3,2.4-0.8s0.9-1.2,0.9-2.2v-5c0-0.9-0.3-1.6-0.9-2.2
				s-1.4-0.8-2.4-0.8h-4.1V501h4c1.4,0,2.6,0.2,3.6,0.7s1.8,1.2,2.3,2.1s0.8,2,0.8,3.3v4.8c0,1.2-0.3,2.3-0.8,3.2s-1.3,1.6-2.3,2.1
				s-2.2,0.8-3.7,0.8h-4V514.9z"/>
			<path d="M346.5,518h-3.3v-17h3.3V518z"/>
			<path d="M353.8,518.2c0,0-0.5-0.2-1.4-0.7s-1.6-1.2-2.1-2.2s-0.7-2.1-0.7-3.4v-4.7c0-1.3,0.2-2.5,0.7-3.4s1.2-1.7,2.1-2.2
				s2-0.8,3.3-0.8c1.1,0,2,0.2,2.9,0.7s1.5,1.1,2.1,2s0.9,1.9,1.1,3.2h-3.3c-0.1-0.6-0.3-1-0.6-1.4s-0.6-0.7-0.9-0.9
				s-0.8-0.3-1.2-0.3c-0.6,0-1.1,0.1-1.5,0.4s-0.7,0.6-1,1.1s-0.3,1-0.3,1.7v4.7c0,0.7,0.1,1.2,0.3,1.7s0.5,0.8,1,1.1
				s0.9,0.4,1.5,0.4c0.5,0,0.9-0.1,1.3-0.3s0.7-0.5,0.9-0.9s0.4-0.9,0.6-1.5h3.3c-0.2,1.2-0.6,2.3-1.2,3.2s-1.2,1.5-2.1,2
				s-1.8,0.7-2.9,0.7C354.5,518.2,353.8,518.2,353.8,518.2z"/>
			<path d="M362.5,501H375v3.1h-12.5V501z M367.1,502.4h3.2V518h-3.2V502.4z"/>
			<path d="M379.5,518h-3.3v-17h3.3V518z"/>
			<path d="M381.2,501h3.3l3.6,11.4l3.6-11.4h3.3l-5.7,17h-2.5L381.2,501z"/>
			<path d="M401.9,501h2l6.5,17H407l-4.1-11.6l-4.1,11.6h-3.5L401.9,501z M398.6,512.2h9v3.1h-9V512.2z"/>
		</g>
	</g>
</g>
</svg>
